<svg id="Capa_1" data-name="Capa 1" xmlns="http://www.w3.org/2000/svg" viewBox="0 0 480 391.86"><title>theater</title><path d="M328.58,137.51l-5.2-1.31a61.08,61.08,0,0,0-65.7,25.52A8,8,0,0,0,271,170.56a45.12,45.12,0,0,1,48.48-18.84L324.7,153a8,8,0,0,0,3.88-15.52Z" transform="translate(0 -44.07)"/><path d="M412.22,229.74a8,8,0,0,0-6.13.45h0a131.32,131.32,0,0,1-117.41,0,8,8,0,0,0-11.2,9.66l7.64,23a65.53,65.53,0,0,0,124.52,0l7.63-23A8,8,0,0,0,412.22,229.74Zm-17.74,28.09a49.53,49.53,0,0,1-94.14,0l-2.06-6.2a147.85,147.85,0,0,0,98.25,0Z" transform="translate(0 -44.07)"/><path d="M447.77,165c-.08-.13-.17-.26-.26-.39a61.1,61.1,0,0,0-65.69-25.49l-5.21,1.31a8,8,0,0,0,3.89,15.49l5.22-1.3a45.11,45.11,0,0,1,48.46,18.83A8,8,0,1,0,447.77,165Z" transform="translate(0 -44.07)"/><path d="M474.54,64.66a402.71,402.71,0,0,0-254.27,0,8,8,0,0,0-5.45,7.58v59.59A383.92,383.92,0,0,1,10.54,121,8,8,0,0,0,0,128.54V246A228,228,0,0,0,75.94,415.88a78.76,78.76,0,0,0,101.89,2.64l2.45-2a225.23,225.23,0,0,0,71.88-101.68,225.69,225.69,0,0,0,38.59,45,78.76,78.76,0,0,0,101.89,2.64l2.45-2A226.57,226.57,0,0,0,480,183.07V72.24A8,8,0,0,0,474.54,64.66ZM170.25,404.1l-2.4,2a62.79,62.79,0,0,1-81.26-2.14A211.94,211.94,0,0,1,16,246V139.49a400,400,0,0,0,198.82,8.8V190q0,7,.44,14c.09,1.55.3,3.09.43,4.64.25,3.11.49,6.22.88,9.31.24,1.88.58,3.74.86,5.6.42,2.76.8,5.52,1.31,8.25.37,2,.86,4,1.28,5.93.56,2.59,1.08,5.19,1.73,7.76.52,2.05,1.15,4.07,1.71,6.1.7,2.47,1.36,4.94,2.14,7.38.66,2.06,1.41,4.1,2.12,6.14.8,2.4,1.64,4.76,2.55,7.11.8,2.05,1.67,4.05,2.52,6.07,1,2.3,1.91,4.61,3,6.87.93,2,1.95,4,2.94,6,.86,1.73,1.6,3.49,2.54,5.2A209.88,209.88,0,0,1,170.25,404.1ZM464,183.07a210.72,210.72,0,0,1-78.94,165l-2.44,2a62.78,62.78,0,0,1-81.21-2.14,210.58,210.58,0,0,1-44.61-56.35,213.28,213.28,0,0,1-24.32-75.2,209.92,209.92,0,0,1-1.66-26.4V78.05a386.9,386.9,0,0,1,233.18,0Z" transform="translate(0 -44.07)"/><path d="M96.34,205.26a8,8,0,0,0-11.1,2.25l-3.47,5.25A50.07,50.07,0,0,1,40,235.23a8,8,0,0,0,0,16,66,66,0,0,0,55.1-29.62l3.48-5.25A8,8,0,0,0,96.34,205.26Z" transform="translate(0 -44.07)"/><path d="M179.63,323.2h0a89.87,89.87,0,0,0-100.41,0A28,28,0,0,0,94.7,374.44a27.63,27.63,0,0,0,12.46-3,49.84,49.84,0,0,1,44.47,0,28,28,0,0,0,28-48.28ZM174,353.13a11.88,11.88,0,0,1-15.2,4.06,65.87,65.87,0,0,0-58.85,0,11.86,11.86,0,0,1-15.2-4.06,12,12,0,0,1,3.31-16.63,73.93,73.93,0,0,1,82.59,0A12,12,0,0,1,174,353.13Z" transform="translate(0 -44.07)"/><path d="M218.9,277.11l-15.62-36.45-.08-.14a7.94,7.94,0,0,0-7.46-5.29A50,50,0,0,1,154,212.76l-3.48-5.25a8,8,0,1,0-13.34,8.85l3.49,5.25a66,66,0,0,0,43.86,28.55l-11.56,27a25,25,0,1,0,46,0Zm-15.46,14.82a9.23,9.23,0,0,1-15,0,8.87,8.87,0,0,1-.8-8.49l8.28-19.31,8.27,19.31A8.83,8.83,0,0,1,203.44,291.93Z" transform="translate(0 -44.07)"/></svg>